<?xml version="1.0" encoding="utf-8"?>
<!-- Generator: Adobe Illustrator 18.0.0, SVG Export Plug-In . SVG Version: 6.00 Build 0)  -->
<!DOCTYPE svg PUBLIC "-//W3C//DTD SVG 1.1//EN" "http://www.w3.org/Graphics/SVG/1.1/DTD/svg11.dtd">
<svg version="1.1" id="Layer_1" xmlns="http://www.w3.org/2000/svg" xmlns:xlink="http://www.w3.org/1999/xlink" x="0px" y="0px"
	 viewBox="0 0 512 512" enable-background="new 0 0 512 512" xml:space="preserve">
<g>
	<g>
		<g>
			<g>
				<path fill="#F23900" d="M125.1,315.3l-7.1,30.9C79,354.9,32.5,383.7,0,407.5L125.1,315.3z M162.2,165.7l-1.2,4.9h118.7
					l-14.4,58.7H146.4L134,279.6c0,1,0.4,1.8,1,2.6c0.6,1,1.8,1.4,3.9,1.4c1.8,0,4.1-0.4,6.9-1.4c2.8-0.8,6.5-2.2,11-4.5l-4.1,3
					c-2.6,2-6.3,4.7-10.6,7.7c-4.5,3.2-9.5,6.9-15,11c-5.7,4.3-11.4,8.3-17.3,12.6c-13.6,9.9-29.2,21.3-46.5,34.1H39.8l15.6-62.9
					c0-1.2,0.2-2.6,0.6-3.7c1.4-5.3,1-8.9-0.8-10.8c-1.8-1.8-4.7-2.8-8.3-2.8c-10.4,0-24.2,5.9-33.7,10.4c-2.8,1.4-4.7,2.4-5.7,2.8
					L162.2,165.7z M166.5,148.3l-95,69.6l42-169.7h189.2l-119.5,87.7c6.1-5.5,11-10.2,14.4-14.4c2.2-2.4,3.9-4.5,4.9-5.9
					c0.8-1.4,1.2-2.8,1.4-4.1s-0.2-2.2-1-3c-0.8-0.8-2.4-1.2-4.7-1.2c-2,0-3.7-0.2-4.7-0.6h-16.6L166.5,148.3z M242.4,106.7
					l126-92.6c-20.3,15.8-46.1,42.8-54.8,68l-6.1,24.6H242.4z"/>
			</g>
		</g>
		<g>
			<g>
				<path fill="#0086C9" d="M106.6,404.1c23.3-21.5,51.8-63.3,60.3-95.2l1-4.9c20.3-81.2,81.6-144.7,167.7-144.7
					c26.4,0,55,4.1,76.7,19.9L300.9,261c10.6-9.3,22.1-19.9,29.6-32.1c1.4-2.6,2.2-5.1,2.4-7.1c0-1.8-1.2-3.2-3.4-3.9
					c-21.9,0-37.6,5.9-52,21.9c-12.8,14-22.9,34.3-30,60.5L106.6,404.1z M206.1,453.7c-29.6-14.6-44.7-40.8-47.9-73.3l85-62.5
					l-0.8,3.5c-3.4,14.4-5.3,27-5.5,37.7c-0.2,10.8,1.2,19.9,4.7,27c5.5,12.2,16.4,17.9,29.2,19.9L206.1,453.7z M332.7,374.9
					L459,282.3c-0.8,1-2.4,2.8-4.9,5.7c-2.6,2.8-5.5,6.1-8.5,9.5c-3,3.5-6.1,7.1-9.1,10.6c-3,3.7-5.5,6.7-7.3,9.3
					c-1.2,2.2-2.4,4.5-3.5,7.1c-2.6,5.7-5.1,11.4-7.1,17.3l-20.5,82.4l-0.4,0.4c-34.5,28.8-87.9,40.8-132.7,40.8
					c-5.3,0-10.6-0.2-15.6-0.6c-7.7,0-16.6,2.6-23.7,5.3c-18.1,5.5-43.6,18.7-60.3,27.8l124-91.1c15.8-0.6,28.6-4.3,38.4-11.4
					L332.7,374.9z M300.1,300.4h114.7l-126.9,93.2c8.3-7.5,16.8-15.2,23.7-23.9c2.2-3,4.1-5.7,5.5-8.1c1.2-2.2,1.6-4.3,1.4-5.9
					c-0.4-1.4-2-2.2-4.7-2.4h-27L300.1,300.4z M512,120.4c-15.4,12.6-29,24.8-40.8,36.5c-12.4,11.8-27.6,28.4-33.9,44.7
					c-1.6,4.5-2,8.3-1,11.8c0.6,2.2,1,4.3,1.2,6.1c2.6,12.2,2.8,26.2,0.6,42.2l-0.2,1.8h-74.5c0.6-6.3,0.6-12.4,0-17.9
					c-0.6-5.5-2-9.7-3.9-13.2L512,120.4z"/>
			</g>
		</g>
	</g>
</g>
</svg>
